<svg id="Capa_1" fill="#d36114bb" data-name="Capa 1" xmlns="http://www.w3.org/2000/svg" viewBox="0 0 707.02 707.05"><path d="M353.6,0C159.14,0,0,159.07,0,353.45c0,194,158.8,353.37,352.32,353.6C547.63,707.29,707,548.49,707,353.62,707.05,159.19,548,0,353.6,0ZM353,675.28c-178.16,0-321.38-143.81-321.29-322.5.1-178,144-321.13,322.79-321,177.92.13,321,144.18,320.72,323.06C675,532.23,531.12,675.33,353,675.28Z"/><path d="M571.72,548.22C516.75,608,449.2,641,367.94,645.33c-4.8.27-9.57.88-11.78,1.08-89.9-2.16-163.45-34.65-222.29-99.74-5.49-6.08-5.07-11.61-2.44-18.21C157.81,462.32,205.5,420.09,276,410.1c53.72-7.61,108.84-8.64,162.47,1.3,66.93,12.4,112,53.75,137.09,116.94C578.69,536.14,577.63,541.8,571.72,548.22Z"/><path d="M482.67,248.22c.22,70.7-58.64,129.89-129.17,129.89S224.11,318.92,224.35,248.2c.27-70.43,58.55-128.36,129.15-128.36S482.45,177.82,482.67,248.22Z"/></svg>